<?xml version="1.0" encoding="UTF-8"?>
<svg width="64px" height="64px" viewBox="0 0 64 64" version="1.1" xmlns="http://www.w3.org/2000/svg" xmlns:xlink="http://www.w3.org/1999/xlink">
    <title>alarm_mold_risk</title>
    <g id="alarm_mold_risk" stroke="none" fill="none" fill-rule="evenodd">
        <path d="M32.9700761,8.75719906 L34.198135,13.6637311 C34.7696252,15.947038 37.6279152,16.7129145 39.2644937,15.0212578 L42.7812899,11.3861059 C43.5049279,10.6381142 44.7474718,11.3554973 44.461511,12.356182 L43.0717752,17.2193928 C42.4250468,19.4825397 44.5174603,21.5749532 46.7806072,20.9282248 L51.643818,19.538489 C52.6445027,19.2525282 53.3618858,20.4950721 52.6138941,21.2187101 L48.9787422,24.7355063 C47.2870855,26.3720848 48.052962,29.2303748 50.3362689,29.801865 L55.2428009,31.0299239 C56.2523997,31.2826169 56.2523997,32.7173831 55.2428009,32.9700761 L50.3362689,34.198135 C48.052962,34.7696252 47.2870855,37.6279152 48.9787422,39.2644937 L52.6138941,42.7812899 C53.3618858,43.5049279 52.6445027,44.7474718 51.643818,44.461511 L46.7806072,43.0717752 C44.5174603,42.4250468 42.4250468,44.5174603 43.0717752,46.7806072 L44.461511,51.643818 C44.7474718,52.6445027 43.5049279,53.3618858 42.7812899,52.6138941 L39.2644937,48.9787422 C37.6279152,47.2870855 34.7696252,48.052962 34.198135,50.3362688 L32.9700762,55.2428009 C32.7173831,56.2523997 31.2826169,56.2523997 31.0299239,55.2428009 L29.801865,50.3362689 C29.2303748,48.052962 26.3720848,47.2870855 24.7355063,48.9787422 L21.2187101,52.6138941 C20.4950721,53.3618858 19.2525282,52.6445027 19.538489,51.643818 L20.9282248,46.7806072 C21.5749532,44.5174603 19.4825397,42.4250468 17.2193928,43.0717752 L12.356182,44.461511 C11.3554973,44.7474718 10.6381142,43.5049279 11.3861059,42.7812899 L15.0212578,39.2644937 C16.7129145,37.6279152 15.947038,34.7696252 13.6637311,34.198135 L8.75719906,32.9700761 C7.74760031,32.7173831 7.74760031,31.2826169 8.75719906,31.0299239 L13.6637311,29.801865 C15.947038,29.2303748 16.7129145,26.3720848 15.0212578,24.7355063 L11.3861059,21.2187101 C10.6381142,20.4950721 11.3554973,19.2525282 12.356182,19.538489 L17.2193928,20.9282248 C19.4825397,21.5749532 21.5749532,19.4825397 20.9282248,17.2193928 L19.538489,12.356182 C19.2525282,11.3554973 20.4950721,10.6381142 21.2187101,11.3861059 L24.7355063,15.0212578 C26.3720848,16.7129145 29.2303748,15.947038 29.801865,13.6637311 L31.0299239,8.75719906 C31.2826169,7.74760031 32.7173831,7.74760031 32.9700761,8.75719906 Z M26,35 C24.3431458,35 23,36.3431458 23,38 C23,39.6568542 24.3431458,41 26,41 C27.6568542,41 29,39.6568542 29,38 C29,36.3431458 27.6568542,35 26,35 Z M38,36 C36.8954305,36 36,36.8954305 36,38 C36,39.1045695 36.8954305,40 38,40 C39.1045695,40 40,39.1045695 40,38 C40,36.8954305 39.1045695,36 38,36 Z M37,22 C34.790861,22 33,23.790861 33,26 C33,28.209139 34.790861,30 37,30 C39.209139,30 41,28.209139 41,26 C41,23.790861 39.209139,22 37,22 Z M25,25 C23.8954305,25 23,25.8954305 23,27 C23,28.1045695 23.8954305,29 25,29 C26.1045695,29 27,28.1045695 27,27 C27,25.8954305 26.1045695,25 25,25 Z" id="Shape" fill="#000000"></path>
    </g>
</svg>