<?xml version="1.0" encoding="UTF-8"?>
<svg width="64px" height="64px" viewBox="0 0 64 64" version="1.1" xmlns="http://www.w3.org/2000/svg" xmlns:xlink="http://www.w3.org/1999/xlink">
    <title>measure_mold_risk</title>
    <g id="measure_mold_risk" stroke="none" fill="none" fill-rule="evenodd">
        <path d="M23.9700761,26.7571991 L24.7175902,29.7437838 C24.9909116,30.8358001 26.3579199,31.2020889 27.1406313,30.3930357 L29.2812899,28.1803345 C30.0049279,27.4323429 31.2474718,28.1497259 30.961511,29.1504106 L30.1155849,32.1106259 C29.80628,33.1930005 30.8069995,34.19372 31.8893741,33.8844151 L34.8495894,33.038489 C35.8502741,32.7525282 36.5676571,33.9950721 35.8196655,34.7187101 L33.6069643,36.8593687 C32.7979111,37.6420801 33.1641999,39.0090884 34.2562162,39.2824098 L37.2428009,40.0299239 C38.2523997,40.2826169 38.2523997,41.7173831 37.2428009,41.9700761 L34.2562162,42.7175902 C33.1641999,42.9909116 32.7979111,44.3579199 33.6069643,45.1406313 L35.8196655,47.2812899 C36.5676571,48.0049279 35.8502741,49.2474718 34.8495894,48.961511 L31.8893741,48.1155849 C30.8069995,47.80628 29.80628,48.8069995 30.1155849,49.8893741 L30.961511,52.8495894 C31.2474718,53.8502741 30.0049279,54.5676571 29.2812899,53.8196655 L27.1406313,51.6069643 C26.3579199,50.7979111 24.9909116,51.1641999 24.7175902,52.2562162 L23.9700761,55.2428009 C23.7173831,56.2523997 22.2826169,56.2523997 22.0299239,55.2428009 L21.2824098,52.2562162 C21.0090884,51.1641999 19.6420801,50.7979111 18.8593687,51.6069643 L16.7187101,53.8196655 C15.9950721,54.5676571 14.7525282,53.8502741 15.038489,52.8495894 L15.8844151,49.8893741 C16.19372,48.8069995 15.1930005,47.80628 14.1106259,48.1155849 L11.1504106,48.961511 C10.1497259,49.2474718 9.43234287,48.0049279 10.1803345,47.2812899 L12.3930357,45.1406313 C13.2020889,44.3579199 12.8358001,42.9909116 11.7437838,42.7175902 L8.75719906,41.9700761 C7.74760031,41.7173831 7.74760031,40.2826169 8.75719906,40.0299239 L11.7437838,39.2824098 C12.8358001,39.0090884 13.2020889,37.6420801 12.3930357,36.8593687 L10.1803345,34.7187101 C9.43234287,33.9950721 10.1497259,32.7525282 11.1504106,33.038489 L14.1106259,33.8844151 C15.1930005,34.19372 16.19372,33.1930005 15.8844151,32.1106259 L15.038489,29.1504106 C14.7525282,28.1497259 15.9950721,27.4323429 16.7187101,28.1803345 L18.8593687,30.3930357 C19.6420801,31.2020889 21.0090884,30.8358001 21.2824098,29.7437838 L22.0299239,26.7571991 C22.2826169,25.7476003 23.7173831,25.7476003 23.9700761,26.7571991 Z M50,8 C53.3137085,8 56,10.6862915 56,14 L56,50 C56,53.3137085 53.3137085,56 50,56 L46,56 C44.8954305,56 44,55.1045695 44,54 C44,52.8954305 44.8954305,52 46,52 L50,52 C51.1045695,52 52,51.1045695 52,50 L52,44 L48,44 C47.4477153,44 47,43.5522847 47,43 C47,42.4477153 47.4477153,42 48,42 L52,42 L52,33 L48,33 C47.4477153,33 47,32.5522847 47,32 C47,31.4477153 47.4477153,31 48,31 L52,31 L52,22 L48,22 C47.4477153,22 47,21.5522847 47,21 C47,20.4477153 47.4477153,20 48,20 L52,20 L52,14 C52,12.8954305 51.1045695,12 50,12 L46,12 C44.8954305,12 44,11.1045695 44,10 C44,8.8954305 44.8954305,8 46,8 L50,8 Z M19,43 C17.8954305,43 17,43.8954305 17,45 C17,46.1045695 17.8954305,47 19,47 C20.1045695,47 21,46.1045695 21,45 C21,43.8954305 20.1045695,43 19,43 Z M27.5,43 C26.6715729,43 26,43.6715729 26,44.5 C26,45.3284271 26.6715729,46 27.5,46 C28.3284271,46 29,45.3284271 29,44.5 C29,43.6715729 28.3284271,43 27.5,43 Z M26.5,35 C25.1192881,35 24,36.1192881 24,37.5 C24,38.8807119 25.1192881,40 26.5,40 C27.8807119,40 29,38.8807119 29,37.5 C29,36.1192881 27.8807119,35 26.5,35 Z M18.5,36 C17.6715729,36 17,36.6715729 17,37.5 C17,38.3284271 17.6715729,39 18.5,39 C19.3284271,39 20,38.3284271 20,37.5 C20,36.6715729 19.3284271,36 18.5,36 Z M32.9700761,8.75719906 L33.6108025,11.3171288 C33.8178642,12.1444139 34.8534765,12.4219054 35.4464397,11.8089863 L37.2812899,9.91238531 C38.0049279,9.16439368 39.2474718,9.88177674 38.961511,10.8824614 L38.2364315,13.4197888 C38.0021096,14.2397696 38.7602304,14.9978904 39.5802112,14.7635685 L42.1175386,14.038489 C43.1182233,13.7525282 43.8356063,14.9950721 43.0876147,15.7187101 L41.1910137,17.5535603 C40.5780946,18.1465235 40.8555861,19.1821358 41.6828712,19.3891975 L44.2428009,20.0299239 C45.2523997,20.2826169 45.2523997,21.7173831 44.2428009,21.9700761 L41.6828712,22.6108025 C40.8555861,22.8178642 40.5780946,23.8534765 41.1910137,24.4464397 L43.0876147,26.2812899 C43.8356063,27.0049279 43.1182233,28.2474718 42.1175386,27.961511 L39.5802112,27.2364315 C38.7602304,27.0021096 38.0021096,27.7602304 38.2364315,28.5802112 L38.961511,31.1175386 C39.2077808,31.9793295 38.3204081,32.6310048 37.6071255,32.3175446 C37.3432245,31.922769 36.9903226,31.5886807 36.572284,31.3541642 L35.4464397,30.1910137 C34.8534765,29.5780946 33.8178642,29.8555861 33.6108025,30.6828712 L33.4406861,31.360106 L32.3181827,31.6818173 L32.8845331,29.6999432 C33.7424154,26.6978891 30.0147837,24.5457399 27.8438697,26.7897148 L26.4106916,28.2711257 L25.9102284,26.2715972 C25.5398851,24.791944 24.3232009,24.0351435 23.087099,24.0011957 C23.2722789,23.4359408 22.9614566,22.7720717 22.3171288,22.6108025 L19.7571991,21.9700761 C18.7476003,21.7173831 18.7476003,20.2826169 19.7571991,20.0299239 L22.3171288,19.3891975 C23.1444139,19.1821358 23.4219054,18.1465235 22.8089863,17.5535603 L20.9123853,15.7187101 C20.1643937,14.9950721 20.8817767,13.7525282 21.8824614,14.038489 L24.4197888,14.7635685 C25.2397696,14.9978904 25.9978904,14.2397696 25.7635685,13.4197888 L25.038489,10.8824614 C24.7525282,9.88177674 25.9950721,9.16439368 26.7187101,9.91238531 L28.5535603,11.8089863 C29.1465235,12.4219054 30.1821358,12.1444139 30.3891975,11.3171288 L31.0299239,8.75719906 C31.2826169,7.74760031 32.7173831,7.74760031 32.9700761,8.75719906 Z M35,21 C33.8954305,21 33,21.8954305 33,23 C33,24.1045695 33.8954305,25 35,25 C36.1045695,25 37,24.1045695 37,23 C37,21.8954305 36.1045695,21 35,21 Z M27.5,19 C26.6715729,19 26,19.6715729 26,20.5 C26,21.3284271 26.6715729,22 27.5,22 C28.3284271,22 29,21.3284271 29,20.5 C29,19.6715729 28.3284271,19 27.5,19 Z M32.5,15 C31.6715729,15 31,15.6715729 31,16.5 C31,17.3284271 31.6715729,18 32.5,18 C33.3284271,18 34,17.3284271 34,16.5 C34,15.6715729 33.3284271,15 32.5,15 Z" id="Combined-Shape" fill="#000000"></path>
    </g>
</svg>