<?xml version="1.0" encoding="UTF-8"?>
<svg width="600px" height="600px" viewBox="0 0 600 600" version="1.1" xmlns="http://www.w3.org/2000/svg" xmlns:xlink="http://www.w3.org/1999/xlink">
    <title>drivers/birdie-pro/assets/icon</title>
    <g id="/drivers/birdie-pro/assets/icon" stroke="none" fill="none" fill-rule="evenodd" stroke-width="1">
        <g id="birdy" transform="translate(103, 0.454)" fill="#000000">
            <path d="M224.058992,600 L223.215956,600 L171.108664,600 C147.431502,600 124.408709,594.516075 103.168834,584.058214 C82.7291136,573.994324 64.2840432,559.487735 48.8074009,541.47032 C17.6646927,505.214968 0,456.593491 0,404.978075 C0,353.362658 17.6646927,304.741182 48.8074009,268.485831 C64.2840432,250.468415 82.7291136,235.961826 103.168834,225.897936 C118.125646,218.533663 133.966566,213.63585 150.309361,211.440547 C149.35008,204.27045 148.875179,197.00395 148.875179,189.680377 L148.875179,137.180832 L138.962593,131.272361 L138.486192,130.9884 C130.249072,126.078619 126.17445,117.659092 126.225647,109.266899 L126.039261,109.15571 L126.227922,109.047794 C126.350928,100.656508 130.599273,92.3233354 138.93628,87.5851469 L139.417749,87.3115124 L149.230145,81.7343838 C152.744624,35.9832114 191.056292,0 237.778853,0 C286.87411,0 326.682528,39.7306529 326.682528,88.7512187 L326.683189,116.741787 C334.635454,128.500463 338.980912,142.467383 338.980912,157.06847 L338.980257,261.66066 C355.158493,278.642857 368.312437,299.053904 377.694292,321.717576 C388.388122,347.550575 394,375.845414 394,404.978075 C394,456.518001 376.385374,505.077878 345.321361,541.320248 C329.883985,559.331028 311.483243,573.84479 291.087891,583.932169 C270.128422,594.298557 247.423213,599.817783 224.058992,600 L224.058992,600 Z M165.796696,235.188352 L163.894642,235.278939 C86.6177748,239.655869 25.146261,313.969827 25.146261,404.978075 C25.146261,496.726266 87.6214268,571.507597 165.78265,574.770073 C106.576238,548.390222 64.8168164,482.190145 64.8168164,404.978075 C64.8168164,365.99775 75.4919159,328.808677 95.0129691,297.923338 C112.878922,269.656625 137.46073,247.809511 165.796696,235.188352 Z M359.328042,345.987216 L351.199948,345.677318 L326.40727,344.728676 L326.407782,347.159382 C326.407782,356.76403 316.054107,362.814233 307.672837,358.107206 L286.462434,346.194994 L286.462544,376.297623 C290.165341,378.221794 293.500744,380.816212 296.304999,383.964928 L300.105687,388.231544 C307.422398,392.361613 312.353816,400.200382 312.353816,409.177198 C312.353816,420.325935 304.745296,429.72562 294.400572,432.435945 L289.864338,435.510001 C284.147599,439.38454 277.421326,441.454686 270.466665,441.454686 C261.919122,441.454686 254.09599,438.356479 248.061318,433.22296 L221.467312,433.222455 C215.383102,433.222455 209.727436,430.520584 205.63613,425.89955 C201.682852,421.434416 199.451761,415.476548 199.451761,409.177198 C199.451761,402.877848 201.682852,396.91998 205.63613,392.454845 C209.727436,387.833812 215.383102,385.13194 221.467312,385.13194 L243.637951,385.131904 C246.269904,381.902155 249.491635,379.142113 253.17607,377.022663 L253.175663,330.920401 C229.699278,320.491958 209.114045,304.325154 193.348202,283.883232 C184.436077,272.32781 177.247314,259.651035 171.951269,246.203169 L171.160929,246.550894 C145.046549,258.120045 122.266676,278.329423 105.644449,304.628368 C87.3973076,333.49818 77.3899469,368.361037 77.3899469,404.978075 C77.3899469,428.006713 81.3401963,450.395142 88.9046701,471.140535 C96.2569741,491.304058 106.919945,509.612586 120.234102,525.054904 C133.516028,540.45984 149.219016,552.760754 166.476504,561.220547 C184.170562,569.894351 203.245937,574.415485 222.891336,574.415485 C242.536735,574.415485 261.612109,569.894351 279.306167,561.220547 C296.563654,552.760754 312.266643,540.45984 325.548569,525.054904 C338.862726,509.612586 349.525697,491.304058 356.878001,471.140535 C364.442474,450.395142 368.392724,428.006713 368.392724,404.978075 C368.392724,384.585631 365.295417,364.691288 359.328042,345.987216 Z M278.019721,386.266303 L273.889428,384.759779 L273.889356,342.014374 L265.749366,337.190697 L265.749167,385.038429 L261.909882,386.659233 C253.82703,390.071513 248.463686,397.99925 248.463686,406.916132 C248.463686,419.054842 258.314755,428.895212 270.466665,428.895212 C271.119752,428.895212 271.769232,428.866716 272.413578,428.810124 C266.256889,424.453269 262.238249,417.284127 262.238249,409.177198 C262.238249,398.640587 269.026663,389.688114 278.474376,386.438107 C278.32362,386.379067 278.172025,386.321855 278.019721,386.266303 Z M221.467312,397.691394 C216.436079,397.691394 212.024891,402.673748 212.024891,409.177198 C212.024891,415.680649 216.436079,420.662981 221.467312,420.662981 L238.737879,420.663426 C236.906118,416.450699 235.890556,411.801886 235.890556,406.916132 C235.890556,403.739828 236.323845,400.643274 237.142147,397.691394 L221.467312,397.691394 Z M286.115877,420.661123 L286.325108,420.662981 C286.451285,420.662981 287.050562,420.662436 287.494653,420.661805 C287.80053,420.661371 288.060984,420.660881 288.257524,420.660346 C288.365905,420.660051 288.452979,420.659745 288.5156,420.659439 L288.546532,420.659276 C294.785771,420.512796 299.780685,415.416373 299.780685,409.177198 C299.780685,402.909226 294.74141,397.799056 288.467867,397.693109 C288.448992,397.692791 286.740778,397.691414 286.325108,397.691414 C279.965029,397.691414 274.81138,402.834997 274.81138,409.177198 C274.81138,415.449705 279.852385,420.549791 286.115877,420.661123 L286.115877,420.661123 Z M288.564262,332.967212 L313.834651,347.159382 L313.83351,157.108973 L313.828256,156.321153 C313.406699,130.348999 292.198356,109.424418 266.097502,109.424418 C239.733002,109.424418 218.360352,130.773853 218.360352,157.109717 L218.360352,213.088532 C218.360352,262.783438 245.199175,308.612832 288.564262,332.967212 Z M326.407085,295.584571 L326.407085,332.159782 L352.366165,333.153245 L352.753842,333.168072 L352.523331,332.865748 L352.108104,332.321164 L341.01054,317.766314 C335.624578,310.702433 330.747463,303.290032 326.407085,295.584571 Z M174.02144,88.7518122 L174.02144,96.5440923 L151.37146,109.417774 L151.847861,109.701735 L174.02144,122.918461 L174.02144,189.680377 C174.02144,205.540887 176.635589,220.811161 181.463626,235.076074 L181.26477,235.075786 C186.259605,249.862416 193.690857,263.748297 203.308274,276.218199 C214.064558,290.164749 227.25994,301.944891 242.167927,311.008874 C219.057947,284.187531 205.787221,249.593703 205.787221,213.088532 L205.787221,157.109717 C205.787221,123.837447 232.789054,96.8649435 266.097502,96.8649435 C279.341575,96.8649435 291.588567,101.129321 301.537494,108.358506 L301.537494,88.7518122 C301.537494,53.6083517 272.9911,25.1189481 237.778853,25.1189481 C202.566606,25.1189481 174.02144,53.6083517 174.02144,88.7518122 Z M227.745961,70.3402726 C232.750747,70.3402726 236.807928,74.6787608 236.807928,80.0305567 C236.807928,85.3823527 232.750747,89.7208403 227.745961,89.7208403 C222.741175,89.7208403 218.683993,85.3823527 218.683993,80.0305567 C218.683993,74.6787608 222.741175,70.3402726 227.745961,70.3402726 Z" id="Shape" fill-rule="nonzero"></path>
        </g>
    </g>
</svg>